<svg xmlns="http://www.w3.org/2000/svg" xmlns:xlink="http://www.w3.org/1999/xlink" version="1.1" id="Layer_1" x="0px" y="0px" width="100px" height="100px" viewBox="5.0 -10.0 100.0 135.0" enable-background="new 0 0 100 100" xml:space="preserve">
<path fill-rule="evenodd" clip-rule="evenodd" d="M98.682,38.416c-2.909,0.325-5.678-0.988-8.587-0.644  c-1.982,0.234-2.841,0.382-2.213,2.907c2.902,11.711-2.994,21.742-14.548,25.291c-11.174,3.43-23.17-2.19-27.21-12.745  c-1.511-3.954-1.774-9.346-0.575-11.897c0.094,0.039,0.263,0.062,0.276,0.12c1.355,5.36,1.466,5.6,6.744,3.174  c8.736-4.019,18.016-6.757,26.531-11.273c1.355-0.718,2.89-1.245,4.407-0.902c4.557,1.028,9.188,1.883,13.4,4.017  C97.609,36.82,98.62,37.128,98.682,38.416z M86.601,46.026c-0.032-1.757-0.071-3.486-0.686-5.202  c-0.448-1.258-0.884-1.705-2.093-0.881c-3.487,2.371-7.622,3.333-11.392,5.091c-1.622,0.757-2.486,1.517-2.74,3.455  c-0.399,3.081-3.734,4.473-5.856,2.298c-2.269-2.33-4.336-1.709-6.796-1.035c-2.312,0.635-4.664,1.268-7.037,1.483  c-2.314,0.21-2.337,1.016-1.518,2.811c3.367,7.377,13.644,12.428,21.997,10.715C80.101,62.792,86.565,55.277,86.601,46.026z"/>
<path fill-rule="evenodd" clip-rule="evenodd" d="M1.278,43.596c3.487-2.394,6.081-4.134,8.636-5.933  c1.508-1.064,2.935-0.99,4.612-0.279c7.43,3.145,14.674,6.771,22.433,9.107c4.657,1.402,4.683,1.305,5.028-3.471  c0.032-0.457,0.195-0.905,0.374-1.703c3.39,9.617-1.661,20.003-10.703,22.69c-8.856,2.633-18.646-2.925-21.032-11.939  c-0.097-0.365-0.211-0.728-0.27-1.098C9.231,44.021,9.235,44.021,1.278,43.596z M26.594,63.266  c5.902,0.075,12.032-3.945,13.949-9.324c0.325-0.912,1.482-2.215,0.231-3.024c-1.219-0.793-2.178,0.065-3.097,1.206  c-1.993,2.472-3.771,2.202-5.532-0.624c-0.445-0.712-0.543-1.479-1.72-1.693c-5.307-0.97-10.611-2.017-15.86-3.258  c-2.71-0.642-3.032,0.492-2.896,2.72C12.13,56.623,19.053,63.169,26.594,63.266z"/>
<text x="0.0" y="117.5" font-size="5.0" font-weight="bold" font-family="Helvetica Neue, Helvetica, Arial-Unicode, Arial, Sans-serif" fill="#000000">Created by Ealancheliyan s</text><text x="0.0" y="122.5" font-size="5.0" font-weight="bold" font-family="Helvetica Neue, Helvetica, Arial-Unicode, Arial, Sans-serif" fill="#000000">from the Noun Project</text></svg>